<?xml version="1.0" encoding="UTF-8"?>
<svg width="601px" height="601px" viewBox="0 0 601 601" version="1.1" xmlns="http://www.w3.org/2000/svg" xmlns:xlink="http://www.w3.org/1999/xlink">
    <g id="favicon" stroke="none" stroke-width="1" fill="none" fill-rule="evenodd">
        <circle id="Oval" fill="#FC9504" cx="300.5" cy="300.5" r="280.5"></circle>
        <path d="M408.080696,415.46 L408.080696,287.054019 C408.080696,260.216781 397.010534,246.794209 374.870208,246.786302 C352.729882,246.778394 341.635998,260.200967 341.588554,287.054019 L341.588554,415.46 L276.175753,415.46 L276.175753,287.054019 C276.175753,260.216781 265.275596,246.794209 243.475283,246.786302 C221.295421,246.786302 210.225258,260.208874 210.264794,287.054019 L210.264794,415.46 L144.840132,415.46 L144.840132,279.474911 C144.840132,251.459492 154.566061,230.256176 174.017918,215.864965 C191.145042,203.015669 214.297497,196.59102 243.475283,196.59102 C273.056339,196.59102 294.848745,204.178036 308.852501,219.352066 C320.918979,204.178036 342.909067,196.59102 374.822764,196.59102 C404.000551,196.59102 427.145098,203.015669 444.256407,215.864965 C463.708264,230.248269 473.438147,251.451584 473.446054,279.474911 L473.446054,415.46 L408.080696,415.46 Z" id="Path" fill="#FFFFFF"></path>
        <path d="M270.257169,185.797612 L335.183674,138.354057 L334.353412,135.46 C217.191553,149.823536 163.912441,160.000179 63,218.498082 L63.9370102,221.154921 L71.954971,221.237947 C71.2195959,229.315212 69.9386199,249.277088 71.5754225,279.296998 C60.3787436,311.700945 71.2907612,333.714755 81.5385691,357.661889 C83.1635108,332.754023 82.9974584,305.473979 75.3471852,278.324405 C73.7459652,248.50613 75.0625238,228.900081 75.786038,221.27353 L142.68145,221.914018 C142.501657,235.013642 143.163274,248.111292 144.662219,261.126116 C204.441098,282.13175 264.563943,261.054951 296.481594,209.270311 C287.621511,199.342747 270.257169,185.797612 270.257169,185.797612 Z" id="Path" fill="#333333" fill-rule="nonzero"></path>
    </g>
</svg>