<?xml version="1.0" encoding="UTF-8"?>
<svg id="Layer_1" data-name="Layer 1" xmlns="http://www.w3.org/2000/svg" width="246.25" height="70.75" viewBox="0 0 246.25 70.75">
  <defs>
    <style>
      .cls-1 {
        fill: #f98012;
      }

      .cls-2 {
        fill: #fff;
      }

      .cls-3 {
        fill: #333;
      }
    </style>
  </defs>
  <g>
    <path class="cls-2" d="M108.98,48.48h6.88v1.52h-5.25v2.52h4.65v1.52h-4.65v2.6h5.32v1.52h-6.95v-9.68Z"/>
    <path class="cls-2" d="M119.05,53.35v-.03c0-2.75,1.98-5,4.79-5,1.71,0,2.74.62,3.63,1.51l-1.05,1.26c-.74-.72-1.54-1.2-2.6-1.2-1.78,0-3.06,1.52-3.06,3.41v.03c0,1.89,1.29,3.44,3.06,3.44,1.14,0,1.87-.48,2.67-1.26l1.05,1.11c-.97,1.05-2.03,1.71-3.77,1.71-2.71,0-4.72-2.2-4.72-4.98Z"/>
    <path class="cls-2" d="M130.69,54.05v-5.57h1.63v5.5c0,1.8.89,2.76,2.35,2.76s2.33-.91,2.33-2.7v-5.57h1.63v5.49c0,2.89-1.56,4.34-3.99,4.34s-3.95-1.45-3.95-4.26Z"/>
    <path class="cls-2" d="M145.43,48.41h1.51l4.08,9.75h-1.72l-.94-2.34h-4.39l-.96,2.34h-1.67l4.08-9.75ZM147.76,54.32l-1.6-3.87-1.59,3.87h3.2Z"/>
    <path class="cls-2" d="M154.21,48.48h3.46c2.92,0,4.93,2.09,4.93,4.81v.03c0,2.72-2.02,4.84-4.93,4.84h-3.46v-9.68ZM157.67,56.61c1.95,0,3.22-1.37,3.22-3.26v-.03c0-1.89-1.27-3.29-3.22-3.29h-1.83v6.58h1.83Z"/>
    <path class="cls-2" d="M165.77,53.35v-.03c0-2.72,2.02-5,4.87-5s4.84,2.25,4.84,4.98v.03c0,2.72-2.02,5-4.87,5s-4.84-2.25-4.84-4.98ZM173.76,53.35v-.03c0-1.88-1.31-3.44-3.16-3.44s-3.13,1.53-3.13,3.41v.03c0,1.88,1.31,3.44,3.16,3.44s3.13-1.53,3.13-3.41Z"/>
    <path class="cls-2" d="M179.04,48.48h4.14c1.17,0,2.08.36,2.68.97.49.53.77,1.24.77,2.09v.03c0,1.59-.91,2.54-2.21,2.93l2.51,3.66h-1.92l-2.28-3.37h-2.04v3.37h-1.63v-9.68ZM183.06,53.28c1.17,0,1.91-.64,1.91-1.62v-.03c0-1.04-.72-1.6-1.92-1.6h-2.37v3.25h2.39Z"/>
    <path class="cls-2" d="M195.25,56.82l3.2-2.83c1.27-1.12,1.74-1.74,1.74-2.61,0-.95-.65-1.51-1.5-1.51s-1.43.48-2.15,1.45l-1.15-.94c.89-1.3,1.76-2.03,3.42-2.03,1.82,0,3.06,1.16,3.06,2.89v.03c0,1.52-.77,2.35-2.41,3.75l-1.91,1.66h4.42v1.49h-6.71v-1.34Z"/>
    <path class="cls-2" d="M205.08,53.35v-.03c0-2.77,1.62-5,4.06-5s4.03,2.21,4.03,4.98v.03c0,2.76-1.62,5-4.06,5s-4.03-2.21-4.03-4.98ZM211.49,53.35v-.03c0-1.91-.94-3.47-2.37-3.47s-2.35,1.52-2.35,3.44v.03c0,1.91.93,3.47,2.37,3.47s2.35-1.53,2.35-3.44Z"/>
    <path class="cls-2" d="M216.04,56.82l3.2-2.83c1.27-1.12,1.74-1.74,1.74-2.61,0-.95-.65-1.51-1.5-1.51s-1.43.48-2.15,1.45l-1.15-.94c.89-1.3,1.76-2.03,3.42-2.03,1.82,0,3.06,1.16,3.06,2.89v.03c0,1.52-.77,2.35-2.41,3.75l-1.91,1.66h4.42v1.49h-6.71v-1.34Z"/>
    <path class="cls-2" d="M227,57.32c-.7-.75-1.13-1.76-1.13-3.71v-.03c0-2.96,1.35-5.27,3.98-5.27,1.21,0,2.03.4,2.84,1.08l-.88,1.31c-.65-.53-1.21-.84-2.02-.84-1.38,0-2.15,1.3-2.23,3.07.49-.5,1.13-.97,2.21-.97,1.8,0,3.25,1.11,3.25,3.04v.03c0,1.92-1.5,3.29-3.45,3.29-1.14,0-1.96-.37-2.59-1.01ZM231.4,55.1v-.03c0-.97-.74-1.69-1.9-1.69s-1.88.77-1.88,1.7v.03c0,.98.76,1.74,1.92,1.74s1.86-.76,1.86-1.76Z"/>
  </g>
  <path id="moot" class="cls-2" d="M236.43,23.58v.08c0,.71-.58,1.29-1.29,1.29h-1.92c-.42,0-.54.08-.54.46v15.54c0,.71-.58,1.29-1.29,1.29h-.08c-.71,0-1.29-.58-1.29-1.29v-15.5c0-.33-.12-.5-.46-.5h-2c-.71,0-1.29-.58-1.29-1.29v-.08c0-.71.58-1.29,1.29-1.29h1.96c.33,0,.5-.25.5-.67v-8.5c0-.71.58-1.29,1.29-1.29h.08c.71,0,1.29.58,1.29,1.29v8.63c0,.33.17.54.5.54h1.96c.71,0,1.29.58,1.29,1.29ZM226.61,32.29c0,5.79-4.71,10.5-10.54,10.5s-10.5-4.71-10.5-10.5,4.71-10.5,10.5-10.5,10.54,4.71,10.54,10.5ZM223.91,32.29c0-4.33-3.5-8-7.83-8s-7.83,3.67-7.83,8,3.54,8,7.83,8,7.83-3.67,7.83-8ZM204.89,32.29c0,5.79-4.71,10.5-10.54,10.5s-10.5-4.71-10.5-10.5,4.71-10.5,10.5-10.5,10.54,4.71,10.54,10.5ZM202.18,32.29c0-4.33-3.5-8-7.83-8s-7.83,3.67-7.83,8,3.54,8,7.83,8,7.83-3.67,7.83-8ZM183.14,29.46v11.54c0,.71-.58,1.25-1.29,1.25h-.08c-.71,0-1.29-.54-1.29-1.25v-11.38c0-4.25-3.42-5.33-4.83-5.33-3.13,0-4.42,2.08-4.42,5.21v11.5c0,.71-.58,1.25-1.29,1.25h-.13c-.71,0-1.29-.54-1.29-1.25v-11.46c-.04-4.17-3.42-5.25-4.79-5.25-3.17,0-4.46,2.08-4.46,5.21v11.5c0,.71-.58,1.25-1.29,1.25h-.12c-.71,0-1.29-.54-1.29-1.25v-17.42c0-.71.58-1.29,1.29-1.29h.12c.63,0,1.29.42,1.29,1v.62c0,.21.17.25.29.13,1.42-1.67,2.5-2.25,4.17-2.25,1.5,0,4.13.38,5.63,2.58.46.71.54.75.96.04,1-1.54,2.71-2.63,5.33-2.63,2.33,0,7.5,1.08,7.5,7.67Z"/>
  <g>
    <path class="cls-1" d="M138.18,33.84c.27,1.32.93,2.47,1.99,3.45,1.05.97,2.22,1.46,3.51,1.46.89,0,1.87-.23,2.92-.7,1.29-.55,1.93-1.19,1.93-1.93l6.89-.06c-.97,2.3-2.63,4.09-4.96,5.37-2.18,1.21-4.58,1.81-7.18,1.81-3.35,0-6.12-1.04-8.32-3.12-2.2-2.08-3.3-4.8-3.3-8.15s1.1-6.22,3.3-8.26c2.2-2.04,5.05-3.07,8.56-3.07,3.82,0,6.79,1.27,8.93,3.8,1.99,2.34,2.98,5.47,2.98,9.4h-17.23ZM148.87,29.81c-.27-1.4-.86-2.55-1.75-3.45-1.01-.97-2.18-1.46-3.51-1.46s-2.5.47-3.42,1.4c-.92.93-1.53,2.1-1.84,3.5h10.51Z"/>
    <path class="cls-1" d="M123.82,42.54V5.86h6.54v36.68h-6.54Z"/>
    <path class="cls-1" d="M115.17,42.54v-2.16c-.59.78-1.58,1.4-2.98,1.87-1.25.43-2.43.64-3.56.64-3.11,0-5.62-1.07-7.5-3.21-1.89-2.14-2.83-4.79-2.83-7.94s.92-5.72,2.77-7.83c1.85-2.1,4.31-3.15,7.39-3.15,3.46,0,5.7.93,6.72,2.8V5.86h6.37v36.68h-6.37ZM115.17,30.33c0-1.17-.56-2.29-1.67-3.36-1.11-1.07-2.25-1.61-3.42-1.61-1.67,0-3,.68-3.97,2.04-.86,1.21-1.28,2.69-1.28,4.44s.43,3.17,1.28,4.38c.97,1.4,2.3,2.1,3.97,2.1,1.01,0,2.11-.48,3.3-1.43,1.19-.95,1.78-1.94,1.78-2.95v-3.62Z"/>
    <path class="cls-1" d="M85.97,43.12c-3.31,0-6.04-1.05-8.21-3.15-2.16-2.1-3.24-4.81-3.24-8.12s1.08-6.01,3.24-8.12c2.16-2.1,4.9-3.15,8.21-3.15s6.05,1.05,8.23,3.15c2.18,2.1,3.27,4.81,3.27,8.12s-1.09,6.02-3.27,8.12c-2.18,2.1-4.93,3.15-8.23,3.15ZM85.97,25.84c-1.58,0-2.79.6-3.64,1.79-.85,1.19-1.27,2.61-1.27,4.26s.39,3.03,1.18,4.17c.91,1.29,2.15,1.94,3.72,1.94s2.82-.64,3.72-1.94c.83-1.13,1.24-2.52,1.24-4.17s-.39-3.03-1.18-4.17c-.91-1.25-2.17-1.88-3.78-1.88Z"/>
    <path class="cls-1" d="M62.32,43.12c-3.31,0-6.04-1.05-8.21-3.15-2.16-2.1-3.24-4.81-3.24-8.12s1.08-6.01,3.24-8.12c2.16-2.1,4.9-3.15,8.21-3.15s6.05,1.05,8.24,3.15c2.18,2.1,3.27,4.81,3.27,8.12s-1.09,6.02-3.27,8.12c-2.18,2.1-4.93,3.15-8.24,3.15ZM62.32,25.84c-1.58,0-2.79.6-3.64,1.79-.85,1.19-1.27,2.61-1.27,4.26s.39,3.03,1.18,4.17c.91,1.29,2.15,1.94,3.73,1.94s2.82-.64,3.72-1.94c.83-1.13,1.24-2.52,1.24-4.17s-.39-3.03-1.18-4.17c-.91-1.25-2.17-1.88-3.78-1.88Z"/>
    <path class="cls-1" d="M43.39,42.61v-12.85c0-2.69-1.11-4.03-3.33-4.03s-3.33,1.34-3.33,4.03v12.85h-6.54v-12.85c0-2.69-1.09-4.03-3.27-4.03s-3.33,1.34-3.33,4.03v12.85h-6.54v-13.61c0-2.8.97-4.93,2.92-6.36,1.71-1.29,4.03-1.93,6.95-1.93s5.14.76,6.54,2.28c1.21-1.52,3.41-2.28,6.6-2.28,2.92,0,5.23.64,6.95,1.93,1.95,1.44,2.92,3.56,2.92,6.36v13.61h-6.54Z"/>
    <path class="cls-3" d="M29.77,19.7l6.49-4.74-.08-.29c-11.71,1.43-17.04,2.45-27.13,8.3l.09.27h.8c-.07.82-.2,2.81-.04,5.81-1.12,3.24-.03,5.44,1,7.84.16-2.49.14-5.22-.62-7.93-.16-2.98-.03-4.94.04-5.7l6.69.06s-.04,2.02.2,3.92c5.98,2.1,11.99,0,15.18-5.18-.88-.99-2.62-2.35-2.62-2.35Z"/>
  </g>
  <path class="cls-2" d="M236.44,42.4h-.59v-2.94h-1v-.51h2.59v.51h-1.01v2.94ZM239.31,42.4l-.96-2.67h-.04l.03.62v2.05h-.57v-3.44h.89l.94,2.67.97-2.67h.86v3.44h-.61v-2.01l.03-.65h-.04l-1.01,2.66h-.5Z"/>
</svg>