<svg class="w-auto h-20" xmlns="http://www.w3.org/2000/svg" viewBox="0 0 894.51 274.37">
            <defs><style>.clsa-1{fill:none;}.clsa-2,.clsa-3{fill:#ffffff;}.clsa-3{stroke:#ffffff;}.clsa-3,.clsa-4{stroke-miterlimit:10;}.clsa-4{fill:#67bd01;stroke:#67bd01;}</style></defs><g id="Layer_2"><g><g>
            <path fill="#ffffff" d="M700.98,179.05c1.14-2.79,2.73-5.23,4.76-7.33s4.45-3.76,7.26-5.01c2.81-1.25,5.89-1.87,9.23-1.87,3.55,0,6.75,.63,9.58,1.9s5.23,2.96,7.2,5.08c1.97,2.11,3.48,4.56,4.54,7.33s1.59,5.68,1.59,8.72-.58,6.15-1.74,8.95c-1.16,2.79-2.77,5.23-4.82,7.33s-4.47,3.74-7.26,4.95c-2.79,1.21-5.82,1.81-9.07,1.81-3.93,0-7.35-.7-10.25-2.09-2.9-1.4-5.29-3.19-7.17-5.39-1.88-2.2-3.28-4.67-4.19-7.42-.91-2.75-1.36-5.46-1.36-8.12,0-3.09,.57-6.03,1.71-8.82Zm5.08,16.12c.89,2.24,2.12,4.18,3.68,5.81,1.56,1.63,3.42,2.91,5.55,3.84,2.14,.93,4.43,1.4,6.88,1.4s4.75-.47,6.88-1.4c2.14-.93,4-2.21,5.58-3.84,1.59-1.63,2.82-3.56,3.71-5.81,.89-2.24,1.33-4.67,1.33-7.3s-.42-4.99-1.27-7.23c-.85-2.24-2.04-4.19-3.58-5.84s-3.39-2.94-5.55-3.87-4.53-1.4-7.11-1.4-4.75,.45-6.88,1.36c-2.14,.91-3.99,2.18-5.55,3.81-1.57,1.63-2.79,3.56-3.68,5.8-.89,2.24-1.33,4.7-1.33,7.36s.44,5.05,1.33,7.3Z"></path>
            <path fill="#ffffff" d="M759.48,179.11v3.81h.13c1.4-1.82,2.93-3.08,4.6-3.78,1.67-.7,3.33-1.05,4.98-1.05,1.4,0,2.8,.23,4.22,.7,1.42,.47,2.7,1.24,3.84,2.32,1.14,1.08,2.08,2.49,2.82,4.22s1.11,3.89,1.11,6.47v17.7h-5.01v-17.38c0-3.09-.69-5.45-2.06-7.07-1.38-1.63-3.27-2.44-5.68-2.44-2.75,0-4.93,.9-6.54,2.7-1.61,1.8-2.41,4.47-2.41,8.03v16.18h-5.01v-30.39h5.01Z"></path><path class="clsa-2" d="M797.11,163.82v45.68h-5.01v-45.68h5.01Z"></path><path class="clsa-2" d="M814.05,165.91v5.9h-6.22v-5.9h6.22Zm-.63,13.2v30.39h-5.01v-30.39h5.01Z"></path><path class="clsa-2" d="M829.73,179.11v3.81h.13c1.4-1.82,2.93-3.08,4.6-3.78,1.67-.7,3.33-1.05,4.98-1.05,1.4,0,2.8,.23,4.22,.7,1.42,.47,2.7,1.24,3.84,2.32,1.14,1.08,2.08,2.49,2.82,4.22s1.11,3.89,1.11,6.47v17.7h-5.01v-17.38c0-3.09-.69-5.45-2.06-7.07-1.38-1.63-3.27-2.44-5.68-2.44-2.75,0-4.93,.9-6.54,2.7-1.61,1.8-2.41,4.47-2.41,8.03v16.18h-5.01v-30.39h5.01Z"></path><path class="clsa-2" d="M882.36,179.65c1.92,1.04,3.48,2.33,4.66,3.87,1.18,1.54,2.04,3.25,2.57,5.11,.53,1.86,.79,3.62,.79,5.27,0,.3-.01,.63-.03,1.01-.02,.38-.05,.66-.1,.83h-24.81c0,1.4,.3,2.72,.89,3.96,.59,1.25,1.38,2.35,2.38,3.3,.99,.95,2.14,1.71,3.43,2.28,1.29,.57,2.65,.86,4.09,.86,1.82,0,3.33-.32,4.54-.95,1.21-.63,2.29-1.54,3.27-2.73h5.77c-.51,.97-1.15,1.94-1.93,2.89-.78,.95-1.73,1.82-2.86,2.6-1.12,.78-2.4,1.42-3.84,1.9-1.44,.49-3.05,.73-4.82,.73-2.41,0-4.61-.42-6.6-1.27-1.99-.85-3.68-2.02-5.08-3.52-1.4-1.5-2.49-3.27-3.27-5.3s-1.17-4.23-1.17-6.6c0-2.07,.36-4.07,1.08-6,.72-1.92,1.73-3.61,3.05-5.04,1.31-1.44,2.9-2.59,4.76-3.46,1.86-.87,3.93-1.3,6.22-1.3,2.75,0,5.09,.52,7.01,1.55Zm-10.91,3.58c-1.16,.51-2.17,1.18-3.01,2.03s-1.51,1.82-2,2.92c-.49,1.1-.79,2.22-.92,3.36h19.61c-.13-1.18-.44-2.33-.95-3.43-.51-1.1-1.18-2.06-2.03-2.89-.85-.82-1.84-1.49-2.98-2-1.14-.51-2.41-.76-3.81-.76s-2.74,.25-3.9,.76Z"></path></g><g><path class="clsa-2" d="M303.32,46.15v30.11h39.22v10.64h-39.22v33.47h42.3v10.64h-53.92V35.51h52.38v10.64h-40.76Z"></path><path class="clsa-2" d="M498,131.03v-8.96h-.28c-2.43,2.99-5.72,5.63-9.87,7.91-4.15,2.29-9.22,3.43-15.2,3.43-4.57,0-8.92-.84-13.03-2.52-4.11-1.68-7.7-4.11-10.78-7.28-3.08-3.17-5.53-6.96-7.35-11.34-1.82-4.39-2.73-9.34-2.73-14.85,0-5.04,.86-9.76,2.59-14.15,1.73-4.39,4.08-8.17,7.07-11.34,2.99-3.17,6.56-5.67,10.71-7.49,4.16-1.82,8.66-2.73,13.52-2.73,3.17,0,6,.3,8.47,.91,2.47,.61,4.69,1.42,6.65,2.45s3.76,2.26,5.39,3.71c1.63,1.45,3.15,3.01,4.55,4.69h.28V30.18h11.07v100.84h-11.07Zm-46.22-24.02c1.03,3.13,2.57,5.91,4.62,8.33s4.6,4.41,7.63,5.95c3.03,1.54,6.56,2.31,10.57,2.31,3.27,0,6.37-.63,9.31-1.89,2.94-1.26,5.53-3.01,7.77-5.25,2.24-2.24,4.01-4.95,5.32-8.12,1.31-3.17,1.96-6.68,1.96-10.5,0-4.01-.63-7.63-1.89-10.86-1.26-3.22-2.96-6-5.11-8.33-2.15-2.33-4.69-4.13-7.63-5.39-2.94-1.26-6.09-1.89-9.45-1.89-4.11,0-7.7,.75-10.78,2.24-3.08,1.49-5.65,3.45-7.7,5.88-2.05,2.43-3.59,5.21-4.62,8.33-1.03,3.13-1.54,6.33-1.54,9.59s.51,6.47,1.54,9.59Z"></path><path class="clsa-2" d="M579.24,131.03v-8.26h-.28c-2.99,4.01-6.23,6.79-9.73,8.33s-7.03,2.31-10.57,2.31c-2.99,0-5.98-.51-8.96-1.54s-5.72-2.73-8.19-5.11c-2.47-2.38-4.48-5.49-6.02-9.31-1.54-3.83-2.31-8.59-2.31-14.29V63.94h11.07v38.38c0,6.82,1.47,12.02,4.41,15.62,2.94,3.6,6.89,5.39,11.83,5.39,5.79,0,10.36-1.96,13.73-5.88,3.36-3.92,5.04-9.8,5.04-17.65V63.94h11.06v67.09h-11.06Z"></path><path class="clsa-2" d="M658.37,63.66c3.55,1.31,6.56,2.94,9.03,4.9,2.47,1.96,4.41,4.06,5.81,6.3s2.38,4.34,2.94,6.3h-12.33c-1.31-2.8-3.43-5.14-6.37-7-2.94-1.87-6.79-2.8-11.55-2.8-3.17,0-6.21,.54-9.1,1.61-2.89,1.07-5.41,2.71-7.56,4.9-2.15,2.19-3.88,4.92-5.18,8.19-1.31,3.27-1.96,7.05-1.96,11.35,0,3.83,.61,7.33,1.82,10.5,1.21,3.17,2.92,5.93,5.11,8.26,2.19,2.33,4.79,4.16,7.77,5.46,2.99,1.31,6.26,1.96,9.8,1.96,5.23,0,9.24-1.14,12.05-3.43,2.8-2.29,4.86-4.83,6.16-7.63h12.33c-.84,2.52-2.08,5.02-3.71,7.49-1.63,2.47-3.69,4.69-6.16,6.65-2.47,1.96-5.42,3.57-8.82,4.83-3.41,1.26-7.4,1.89-11.97,1.89-5.23,0-10.01-.89-14.36-2.66-4.34-1.77-8.12-4.25-11.35-7.42-3.22-3.18-5.72-6.98-7.49-11.42-1.77-4.44-2.66-9.31-2.66-14.64,0-4.85,.82-9.45,2.45-13.8,1.63-4.34,3.99-8.12,7.07-11.35,3.08-3.22,6.79-5.77,11.14-7.63,4.34-1.87,9.22-2.8,14.64-2.8,4.76,0,8.92,.65,12.47,1.96Z"></path><path class="clsa-2" d="M741.07,65.13c4.25,2.29,7.68,5.14,10.3,8.54,2.61,3.41,4.51,7.17,5.67,11.27,1.17,4.11,1.75,7.98,1.75,11.63,0,.65-.02,1.4-.07,2.24-.05,.84-.12,1.45-.21,1.82h-54.76c0,3.08,.66,6,1.96,8.75,1.31,2.75,3.06,5.18,5.25,7.28,2.19,2.1,4.71,3.78,7.56,5.04,2.85,1.26,5.86,1.89,9.03,1.89,4.01,0,7.35-.7,10.01-2.1s5.07-3.41,7.21-6.02h12.74c-1.12,2.15-2.54,4.27-4.27,6.37-1.73,2.1-3.83,4.01-6.3,5.74-2.47,1.73-5.3,3.13-8.47,4.2-3.17,1.07-6.72,1.61-10.64,1.61-5.32,0-10.18-.93-14.57-2.8-4.39-1.87-8.12-4.46-11.2-7.77-3.08-3.32-5.49-7.21-7.21-11.7-1.73-4.48-2.59-9.34-2.59-14.57,0-4.58,.79-8.99,2.38-13.24,1.59-4.25,3.83-7.96,6.72-11.13,2.89-3.17,6.4-5.72,10.5-7.63,4.11-1.91,8.68-2.87,13.73-2.87,6.07,0,11.23,1.14,15.48,3.43Zm-24.09,7.91c-2.57,1.12-4.79,2.61-6.65,4.48-1.87,1.87-3.34,4.01-4.41,6.44-1.08,2.43-1.75,4.9-2.03,7.42h43.28c-.28-2.61-.98-5.14-2.1-7.56-1.12-2.43-2.61-4.55-4.48-6.37s-4.06-3.29-6.58-4.41c-2.52-1.12-5.32-1.68-8.4-1.68s-6.05,.56-8.61,1.68Z"></path><path class="clsa-2" d="M811.1,71.85c-.98-.14-2.22-.21-3.71-.21-2.43,0-4.69,.44-6.79,1.33-2.1,.89-3.92,2.29-5.46,4.2s-2.76,4.39-3.64,7.42c-.89,3.03-1.33,6.65-1.33,10.85v35.58h-11.07V63.94h11.07v8.4h.28c.56-1.12,1.38-2.31,2.45-3.57,1.07-1.26,2.38-2.4,3.92-3.43,1.54-1.03,3.27-1.89,5.18-2.59,1.91-.7,3.99-1.05,6.23-1.05s4.01,.14,5.6,.42v10.22c-.84-.19-1.75-.35-2.73-.49Z"></path><path class="clsa-2" d="M876.79,65.13c4.25,2.29,7.68,5.14,10.3,8.54,2.61,3.41,4.51,7.17,5.67,11.27,1.17,4.11,1.75,7.98,1.75,11.63,0,.65-.02,1.4-.07,2.24-.05,.84-.12,1.45-.21,1.82h-54.76c0,3.08,.66,6,1.96,8.75,1.31,2.75,3.06,5.18,5.25,7.28,2.19,2.1,4.71,3.78,7.56,5.04,2.85,1.26,5.86,1.89,9.03,1.89,4.01,0,7.35-.7,10.01-2.1s5.07-3.41,7.21-6.02h12.74c-1.12,2.15-2.54,4.27-4.27,6.37-1.73,2.1-3.83,4.01-6.3,5.74-2.47,1.73-5.3,3.13-8.47,4.2-3.17,1.07-6.72,1.61-10.64,1.61-5.32,0-10.18-.93-14.57-2.8-4.39-1.87-8.12-4.46-11.2-7.77-3.08-3.32-5.49-7.21-7.21-11.7-1.73-4.48-2.59-9.34-2.59-14.57,0-4.58,.79-8.99,2.38-13.24,1.59-4.25,3.83-7.96,6.72-11.13,2.89-3.17,6.4-5.72,10.5-7.63,4.11-1.91,8.68-2.87,13.73-2.87,6.07,0,11.23,1.14,15.48,3.43Zm-24.09,7.91c-2.57,1.12-4.79,2.61-6.65,4.48-1.87,1.87-3.34,4.01-4.41,6.44-1.08,2.43-1.75,4.9-2.03,7.42h43.28c-.28-2.61-.98-5.14-2.1-7.56-1.12-2.43-2.61-4.55-4.48-6.37-1.87-1.82-4.06-3.29-6.58-4.41-2.52-1.12-5.32-1.68-8.4-1.68s-6.05,.56-8.61,1.68Z"></path></g><g><polygon class="clsa-1" points="399.06 96.16 399.04 96.18 398.99 96.11 399.06 96.16"></polygon><polygon class="clsa-3" points="424.79 62.34 403.25 90.16 398.12 83.54 414.5 62.34 424.79 62.34"></polygon><polygon class="clsa-3" points="426.39 131.72 415.68 131.72 398.08 108.64 403.3 102.04 426.39 131.72"></polygon><polygon class="clsa-4" points="399.04 96.18 394 102.56 393.98 102.56 393.71 102.94 372.37 130.9 362.05 130.9 388.89 96.1 363.34 63.16 373.66 63.16 393.19 88.56 393.19 88.57 398.99 96.1 398.99 96.11 399.04 96.18"></polygon></g>
            <path fill="#ffffff" d="M233.43,101.55c-5.84,0-11.27,1.77-15.77,4.85l-50.81-50.81c4.46-5.82,7.12-13.09,7.12-20.97,0-19.13-15.49-34.62-34.62-34.62s-34.62,15.49-34.62,34.62c0,7.88,2.68,15.15,7.14,20.97l-44.73,44.73c-7.1-5.82-16.16-9.3-26.05-9.3C18.39,91.01,0,109.4,0,132.1s18.39,41.09,41.09,41.09c10.19,0,19.52-3.74,26.7-9.87l34.08,34.08c-6.34,8.09-10.13,18.26-10.13,29.34,0,26.31,21.31,47.63,47.6,47.63s47.6-21.31,47.6-47.63c0-11.08-3.79-21.25-10.13-29.34-1.77-2.27-3.77-4.39-5.93-6.3-8.4-7.44-19.43-11.97-31.55-11.97s-23.13,4.52-31.55,11.97l-34.08-34.08c5.3-6.92,8.48-15.56,8.48-24.93s-3.38-18.59-9-25.62l44.73-44.73c5.91,4.65,13.33,7.47,21.42,7.47s15.54-2.81,21.44-7.47l50.55,50.55c-3.29,4.18-5.41,9.28-5.91,14.87h-44.88c-2.01-9.89-10.73-17.31-21.21-17.31-11.94,0-21.62,9.69-21.62,21.64s9.67,21.64,21.62,21.64c10.47,0,19.19-7.44,21.21-17.31h45.44c1.13,5.04,3.59,9.54,7.01,13.18,2.01,2.12,4.33,3.94,6.9,5.34,4,2.21,8.61,3.46,13.52,3.46,15.54,0,28.11-12.59,28.11-28.13s-12.57-28.13-28.11-28.13Zm-125.35,102.07c1.73-2.32,3.7-4.46,5.89-6.36,6.84-5.89,15.69-9.46,25.38-9.46s18.57,3.57,25.4,9.46c2.19,1.9,4.15,4.05,5.86,6.36,4.8,6.49,7.68,14.48,7.68,23.13,0,21.49-17.46,38.97-38.95,38.97s-38.95-17.48-38.95-38.97c0-8.66,2.88-16.64,7.68-23.13Zm-34.53-71.51c0,6.97-2.23,13.44-6.02,18.74-1.67,2.36-3.66,4.5-5.89,6.34-5.6,4.59-12.77,7.36-20.56,7.36-17.87,0-32.44-14.56-32.44-32.44s14.56-32.44,32.44-32.44c7.49,0,14.37,2.55,19.86,6.84,2.29,1.77,4.33,3.85,6.06,6.17,4.09,5.41,6.53,12.14,6.53,19.43ZM160.66,49.4c-1.67,2.38-3.72,4.46-6.06,6.17-4.28,3.14-9.54,5-15.25,5s-10.95-1.86-15.23-5c-2.36-1.71-4.41-3.79-6.06-6.17-2.94-4.2-4.67-9.3-4.67-14.78,0-14.32,11.66-25.97,25.97-25.97s25.97,11.64,25.97,25.97c0,5.47-1.73,10.58-4.65,14.78Zm-9.09,86.42c-1.8,5.02-6.58,8.66-12.23,8.66-7.14,0-12.96-5.84-12.96-12.98s5.82-12.98,12.96-12.98c5.65,0,10.43,3.61,12.23,8.66,.48,1.34,.76,2.81,.76,4.33s-.28,2.96-.76,4.33Zm81.86,13.33c-2.49,0-4.85-.48-7.01-1.32-2.81-1.08-5.28-2.79-7.29-4.96-1.84-2.01-3.29-4.41-4.15-7.05-.65-1.95-1.02-4-1.02-6.15,0-.84,.09-1.69,.19-2.51,.41-3.2,1.58-6.17,3.38-8.68,1.67-2.38,3.87-4.37,6.43-5.82,2.79-1.56,6.04-2.47,9.48-2.47,10.73,0,19.45,8.74,19.45,19.47s-8.72,19.47-19.45,19.47Z"></path></g></g></svg>