<?xml version="1.0" encoding="UTF-8"?>
<!-- Generator: Adobe Illustrator 18.1.1, SVG Export Plug-In . SVG Version: 6.00 Build 0)  -->
<svg version="1.1" id="Layer_1" xmlns="http://www.w3.org/2000/svg" xmlns:xlink="http://www.w3.org/1999/xlink" x="0px" y="0px" viewBox="0 0 203 30.8" enable-background="new 0 0 203 30.8" xml:space="preserve">
<g>
	<g>
		<path fill="#010101" d="M112.5,11.6c-0.2,0-0.3-0.1-0.5-0.1c0,0.1,0.1,0.2,0.1,0.2c0,0,0,0.1,0,0.1c0,0.1,0,0.2,0,0.3    c0,0.1-0.1,0.1-0.1,0.2c0.1,0,0.3,0.1,0.4,0.1c1.5,0.5,2.5,1.9,2.5,3.5c0,2-1.7,3.7-3.7,3.7s-3.7-1.7-3.7-3.7h-0.8    c0,2.5,2,4.5,4.5,4.5c2.5,0,4.5-2,4.5-4.5C115.7,13.9,114.4,12.1,112.5,11.6L112.5,11.6z"/>
		<path fill="#010101" d="M112.5,11.4c-0.2,0-0.4-0.1-0.6-0.1c0.1,0.1,0.1,0.2,0.2,0.2c0,0.1,0.1,0.2,0.1,0.2c0.1,0,0.3,0.1,0.4,0.1    c1.7,0.5,3,2.2,3,4.1c0,2.4-1.9,4.3-4.3,4.3s-4.1-1.8-4.3-4.1h0.4c0.1,2,1.8,3.7,3.9,3.7c2.1,0,3.9-1.7,3.9-3.9    c0-1.7-1.1-3.2-2.7-3.7c-0.1,0-0.3-0.1-0.4-0.1c0,0.1-0.1,0.1-0.1,0.2c0,0.1-0.1,0.1-0.2,0.2c0.2,0,0.3,0.1,0.5,0.1    c1.4,0.4,2.4,1.8,2.4,3.3c0,1.9-1.6,3.5-3.5,3.5s-3.5-1.6-3.5-3.5v-0.2h-1.2v0.2c0,2.6,2.1,4.7,4.7,4.7c2.6,0,4.7-2.1,4.7-4.7    C115.9,13.7,114.5,11.9,112.5,11.4L112.5,11.4z"/>
	</g>
	<g>
		<path fill="#010101" d="M111.2,7.8v0.8c4,0,7.3,3.3,7.3,7.3s-3.3,7.3-7.3,7.3c-3.6,0-6.7-2.7-7.2-6.1c0-0.1,0-0.3-0.1-0.4    c-0.1,0-0.1,0.1-0.2,0.1c-0.1,0-0.1,0-0.2,0c-0.1,0-0.1,0-0.2,0c-0.1,0-0.2,0-0.2-0.1c0,0.2,0,0.3,0.1,0.5c0.6,3.9,4,6.9,8,6.9    c4.5,0,8.1-3.7,8.1-8.1S115.7,7.8,111.2,7.8L111.2,7.8z"/>
		<path fill="#010101" d="M111.2,7.5H111v1.2h0.2c3.9,0,7.1,3.2,7.1,7.1c0,3.9-3.2,7.1-7.1,7.1c-3.5,0-6.5-2.6-7-6    c0-0.2,0-0.3-0.1-0.5c-0.1,0.1-0.1,0.1-0.2,0.1c-0.1,0-0.1,0.1-0.2,0.1c0,0.1,0,0.3,0.1,0.4c0.6,3.6,3.7,6.3,7.4,6.3    c4.2,0,7.6-3.4,7.6-7.6s-3.3-7.4-7.3-7.6V8c4.3,0.1,7.7,3.6,7.7,7.9s-3.6,7.9-7.9,7.9c-3.9,0-7.2-2.9-7.8-6.6c0-0.1,0-0.3-0.1-0.4    c-0.1,0-0.2,0-0.2-0.1c-0.1-0.1-0.2-0.1-0.2-0.2c0,0.2,0,0.4,0.1,0.6c0.6,4.1,4.1,7.2,8.3,7.2c4.6,0,8.4-3.8,8.4-8.4    S115.9,7.5,111.2,7.5L111.2,7.5z"/>
	</g>
	<g>
		<path fill="#010101" d="M112.5,4.2c-0.2,0-0.3,0-0.5,0c0,0.1,0.1,0.1,0.1,0.2c0,0.1,0,0.1,0,0.2c0,0.1,0,0.1,0,0.2    c0,0.1,0,0.1-0.1,0.2c0.2,0,0.3,0,0.5,0c5.5,0.6,9.8,5.3,9.8,10.9c0,6.1-4.9,11-11,11s-11-4.9-11-11h-0.8    c0,6.5,5.3,11.8,11.8,11.8S123,22.4,123,15.9C123,9.8,118.4,4.8,112.5,4.2L112.5,4.2z"/>
		<path fill="#010101" d="M112.4,3.9c-0.2,0-0.4,0-0.5,0C111.9,4,112,4,112,4.1c0,0.1,0.1,0.1,0.1,0.2c0.1,0,0.3,0,0.4,0    c5.8,0.6,10.3,5.6,10.3,11.5c0,6.4-5.2,11.6-11.6,11.6c-6.4,0-11.5-5.1-11.6-11.4h0.4c0.1,6.1,5.1,11,11.2,11    c6.1,0,11.2-5,11.2-11.2c0-5.8-4.4-10.5-9.9-11.1c-0.1,0-0.3,0-0.4,0c0,0.1,0,0.1-0.1,0.2c0,0.1-0.1,0.1-0.2,0.2    c0.2,0,0.3,0,0.5,0c5.4,0.6,9.7,5.2,9.7,10.7c0,5.9-4.8,10.8-10.8,10.8s-10.8-4.8-10.8-10.8v-0.2h-1.2v0.2c0,6.6,5.4,12,12,12    s12-5.4,12-12C123.3,9.7,118.5,4.5,112.4,3.9L112.4,3.9z"/>
	</g>
	<path fill="#010101" d="M4.5,27.6V4h10.2c2.1,0,3.9,0.3,5.5,1c1.5,0.7,2.7,1.7,3.5,2.9c0.8,1.3,1.2,2.8,1.2,4.5s-0.4,3.3-1.2,4.6   s-2,2.2-3.5,2.9c-1.5,0.7-3.3,1-5.5,1H7.5l2.5-2.4v9H4.5z M10,19.2l-2.5-2.6h6.9c1.7,0,2.9-0.4,3.8-1.1c0.9-0.7,1.3-1.7,1.3-3   s-0.4-2.3-1.3-3c-0.9-0.7-2.1-1.1-3.8-1.1H7.5L10,5.8V19.2z M19.5,27.6L13.6,19h5.9l5.9,8.6H19.5z"/>
	<path fill="#010101" d="M34.6,23.2h12.8v4.4H29.2V4H47v4.4H34.6L34.6,23.2L34.6,23.2z M34.2,13.4h11.3v4.3H34.2V13.4z"/>
	<path fill="#010101" d="M63.1,28c-1.8,0-3.5-0.3-5.1-0.9c-1.6-0.6-2.9-1.4-4.1-2.5c-1.1-1.1-2-2.4-2.7-3.9c-0.6-1.5-1-3.1-1-4.9   s0.3-3.4,1-4.9C51.9,9.4,52.8,8.1,54,7s2.5-1.9,4.1-2.5c1.6-0.6,3.2-0.9,5.1-0.9c2,0,3.9,0.4,5.6,1.1s3.1,1.7,4.2,3.1L69.3,11   c-0.8-0.9-1.7-1.6-2.7-2.1c-1-0.5-2.1-0.7-3.2-0.7c-1.1,0-2.1,0.2-3,0.6c-0.9,0.4-1.7,0.9-2.4,1.6c-0.7,0.7-1.2,1.5-1.6,2.4   c-0.4,0.9-0.6,1.9-0.6,3.1c0,1.1,0.2,2.1,0.6,3.1c0.4,0.9,0.9,1.7,1.6,2.4c0.7,0.7,1.5,1.2,2.4,1.6c0.9,0.4,1.9,0.6,3,0.6   c1.2,0,2.2-0.2,3.2-0.7c1-0.5,1.9-1.2,2.7-2.1l3.5,3.2c-1.1,1.4-2.5,2.4-4.2,3.1C67,27.6,65.1,28,63.1,28L63.1,28z"/>
	<path fill="#010101" d="M76.5,27.6V4h5.4v23.6H76.5z M81.3,22.2l-0.3-6.3L92.3,4h6.1L88.3,14.9l-3.1,3.2L81.3,22.2L81.3,22.2z    M92.6,27.6l-8.4-10.2l3.6-3.9L99,27.6H92.6L92.6,27.6z"/>
	<path fill="#010101" d="M127.2,27.6V4h4.5l13.9,17h-2.2V4h5.4v23.6h-4.5l-13.9-17h2.2v17H127.2L127.2,27.6z"/>
	<path fill="#010101" d="M159.8,23.2h12.8v4.4h-18.2V4h17.8v4.4h-12.4L159.8,23.2L159.8,23.2z M159.4,13.4h11.3v4.3h-11.3V13.4z"/>
	<path fill="#010101" d="M177,27.6V4h10.2c2.1,0,3.9,0.3,5.5,1c1.5,0.7,2.7,1.7,3.5,2.9c0.8,1.3,1.2,2.8,1.2,4.5s-0.4,3.3-1.2,4.6   c-0.8,1.3-2,2.2-3.5,2.9c-1.5,0.7-3.3,1-5.5,1H180l2.5-2.4v9H177z M182.5,19.2l-2.5-2.6h6.9c1.7,0,2.9-0.4,3.8-1.1   c0.9-0.7,1.3-1.7,1.3-3s-0.4-2.3-1.3-3c-0.9-0.7-2.1-1.1-3.8-1.1H180l2.5-2.6V19.2z M192,27.6l-5.9-8.6h5.9l5.9,8.6H192z"/>
	<circle fill="#010101" cx="107.2" cy="15.9" r="1.3"/>
	<circle fill="#010101" cx="99.8" cy="15.9" r="1.3"/>
	<circle fill="#010101" cx="111.2" cy="8.2" r="1.3"/>
	<g>
		<path fill="#010101" d="M112.5,11.6c0-0.1,0-0.2-0.1-0.2c-0.2-0.5-0.7-0.8-1.2-0.8c-0.7,0-1.3,0.6-1.3,1.3c0,0.7,0.6,1.3,1.3,1.3    c0.4,0,0.8-0.2,1-0.5c0-0.1,0.1-0.1,0.1-0.2c0-0.1,0.1-0.1,0.1-0.2c0-0.1,0.1-0.2,0.1-0.4v0C112.5,11.7,112.5,11.7,112.5,11.6z     M112.1,11.8c0,0.1,0,0.2,0,0.3c0,0.1-0.1,0.1-0.1,0.2c0,0.1-0.1,0.1-0.2,0.2c-0.1,0.1-0.3,0.2-0.6,0.2c-0.5,0-0.9-0.4-0.9-0.9    s0.4-0.9,0.9-0.9c0.3,0,0.5,0.1,0.6,0.3c0.1,0.1,0.1,0.2,0.2,0.2C112.1,11.6,112.1,11.6,112.1,11.8    C112.1,11.7,112.1,11.8,112.1,11.8L112.1,11.8z"/>
		<path fill="#010101" d="M112.5,11.6c0-0.1,0-0.2-0.1-0.2c-0.2-0.5-0.7-0.8-1.2-0.8c-0.7,0-1.3,0.6-1.3,1.3c0,0.7,0.6,1.3,1.3,1.3    c0.4,0,0.8-0.2,1-0.5c0-0.1,0.1-0.1,0.1-0.2c0-0.1,0.1-0.1,0.1-0.2c0-0.1,0.1-0.2,0.1-0.4v0C112.5,11.7,112.5,11.7,112.5,11.6z     M112.1,11.8c0,0.1,0,0.2,0,0.3c0,0.1-0.1,0.1-0.1,0.2c0,0.1-0.1,0.1-0.2,0.2c-0.1,0.1-0.3,0.2-0.6,0.2c-0.5,0-0.9-0.4-0.9-0.9    s0.4-0.9,0.9-0.9c0.3,0,0.5,0.1,0.6,0.3c0.1,0.1,0.1,0.2,0.2,0.2C112.1,11.6,112.1,11.6,112.1,11.8    C112.1,11.7,112.1,11.8,112.1,11.8L112.1,11.8z"/>
	</g>
	<path fill="#010101" d="M103.6,14.6c-0.7,0-1.3,0.6-1.3,1.3c0,0.5,0.3,0.9,0.7,1.1c0.1,0,0.1,0.1,0.2,0.1c0.1,0,0.1,0,0.2,0   c0,0,0.1,0,0.1,0c0.1,0,0.2,0,0.2,0c0.1,0,0.1,0,0.2-0.1c0.1,0,0.1-0.1,0.2-0.1c0.4-0.2,0.6-0.6,0.6-1.1   C104.9,15.2,104.3,14.6,103.6,14.6L103.6,14.6z M104.2,16.5c-0.1,0.1-0.1,0.1-0.2,0.1c-0.1,0-0.1,0.1-0.2,0.1c-0.1,0-0.1,0-0.2,0   c-0.1,0-0.1,0-0.2,0c-0.1,0-0.2,0-0.2-0.1c-0.1-0.1-0.2-0.1-0.2-0.2c-0.1-0.1-0.2-0.3-0.2-0.6c0-0.5,0.4-0.9,0.9-0.9   s0.9,0.4,0.9,0.9C104.4,16.1,104.3,16.4,104.2,16.5L104.2,16.5z"/>
	<g>
		<path fill="#010101" d="M112.5,4.4c0-0.1,0-0.2,0-0.2c0-0.1,0-0.2-0.1-0.2c-0.2-0.4-0.7-0.7-1.2-0.7c-0.7,0-1.3,0.6-1.3,1.3    s0.6,1.3,1.3,1.3c0.5,0,0.9-0.2,1.1-0.6c0-0.1,0.1-0.1,0.1-0.2c0-0.1,0-0.1,0.1-0.2c0-0.1,0-0.2,0-0.3    C112.5,4.5,112.5,4.4,112.5,4.4L112.5,4.4z M112,4.9c0,0.1-0.1,0.1-0.2,0.2c-0.2,0.1-0.4,0.2-0.6,0.2c-0.5,0-0.9-0.4-0.9-0.9    c0-0.5,0.4-0.9,0.9-0.9c0.2,0,0.5,0.1,0.6,0.3C111.9,4,112,4,112,4.1c0,0.1,0.1,0.1,0.1,0.2c0,0.1,0,0.1,0,0.2c0,0.1,0,0.1,0,0.2    C112.1,4.8,112,4.9,112,4.9L112,4.9z"/>
		<path fill="#010101" d="M112.5,4.4c0-0.1,0-0.2,0-0.2c0-0.1,0-0.2-0.1-0.2c-0.2-0.4-0.7-0.7-1.2-0.7c-0.7,0-1.3,0.6-1.3,1.3    s0.6,1.3,1.3,1.3c0.5,0,0.9-0.2,1.1-0.6c0-0.1,0.1-0.1,0.1-0.2c0-0.1,0-0.1,0.1-0.2c0-0.1,0-0.2,0-0.3    C112.5,4.5,112.5,4.4,112.5,4.4L112.5,4.4z M112,4.9c0,0.1-0.1,0.1-0.2,0.2c-0.2,0.1-0.4,0.2-0.6,0.2c-0.5,0-0.9-0.4-0.9-0.9    c0-0.5,0.4-0.9,0.9-0.9c0.2,0,0.5,0.1,0.6,0.3C111.9,4,112,4,112,4.1c0,0.1,0.1,0.1,0.1,0.2c0,0.1,0,0.1,0,0.2c0,0.1,0,0.1,0,0.2    C112.1,4.8,112,4.9,112,4.9L112,4.9z"/>
	</g>
</g>
</svg>