<svg viewBox="0 0 1098 331" xmlns="http://www.w3.org/2000/svg">
    <g id="logo-qawana" stroke="none" stroke-width="1" fill="none" fill-rule="evenodd">
        <g id="Group-3" transform="translate(45, 43)" fill="#242E4D">
            <path d="M227,110.984893 C227.172765,154.551256 206.296128,178.108675 205.653608,178.151374 C204.715081,178.213952 196.84156,166.925574 190.483306,159.676531 C188.83648,157.799663 188.414789,157.576053 189.632877,155.422995 C232.646524,79.4147919 151.12862,-4.80547241 71.7702669,35.8748949 C26.2895512,59.1887071 6.89272073,126.017714 49.3621522,172.308688 C75.1652899,200.433591 127.54212,215.118941 171.651694,176.970274 C174.678707,174.352823 174.879568,176.613392 176.749573,178.889841 C195.224099,201.372966 195.011492,201.499769 211.895573,225.219279 C216.560015,231.771731 219.865414,233.485096 213.396745,238.299916 C200.648524,247.787218 198.462544,251.306341 193.463334,244.348933 C191.598027,241.754595 170.260937,212.060502 170.130553,211.940169 C166.983729,209.02112 139.369434,233.536029 89.0822646,223.171028 C1.12396439,205.041304 -34.6000323,88.4921223 41.8434854,25.3107503 C96.0588412,-19.499526 181.47627,-3.07046368 214.566673,60.8378476 C226.960158,84.7727341 226.855616,106.075112 227,110.984893 Z" id="Fill-1"></path>
            <path d="M130.768615,101.298968 C145.0364,122.297934 120.156251,144.068145 101.612902,131.093964 C85.5809684,119.876461 93.0360493,92.0271836 114.833072,93.0261874 C119.40654,93.2367502 123.176048,95.1224576 123.844268,95.4570186 C127.97699,97.5252138 127.591657,97.9989802 130.768615,101.298968 Z" id="Fill-2"></path>
        </g>
        <g id="awana" transform="translate(301.844, 140.018)" fill="#242E4D" fill-rule="nonzero">
            <path d="M56.079,119.997 C72.561,119.997 86.229,113.565 94.872,101.706 L94.872,116.982 L122.007,116.982 L122.007,3.216 L94.872,3.216 L94.872,18.492 C86.028,6.633 72.159,0 56.079,0 C24.723,0 -5.68434189e-14,25.527 -5.68434189e-14,60.099 C-5.68434189e-14,93.867 23.919,119.997 56.079,119.997 Z M28.14,60.099 C28.14,39.999 43.818,25.728 62.109,25.728 C78.591,25.728 93.867,36.381 94.068,60.099 C93.867,84.018 79.194,94.269 62.109,94.269 C43.215,94.269 28.14,79.395 28.14,60.099 Z" id="Shape"></path>
            <polygon id="Path" points="188.603032 116.982 202.271032 116.982 227.798032 48.039 254.129032 116.982 267.797032 116.982 307.595032 3.015 277.244032 3.015 257.345032 69.948 232.622032 3.216 223.979032 3.216 199.055032 69.948 179.156032 3.015 148.805032 3.015"></polygon>
            <path d="M381.226064,119.997 C397.708064,119.997 411.376064,113.565 420.019064,101.706 L420.019064,116.982 L447.154064,116.982 L447.154064,3.216 L420.019064,3.216 L420.019064,18.492 C411.175064,6.633 397.306064,0 381.226064,0 C349.870064,0 325.147064,25.527 325.147064,60.099 C325.147064,93.867 349.066064,119.997 381.226064,119.997 Z M353.287064,60.099 C353.287064,39.999 368.965064,25.728 387.256064,25.728 C403.738064,25.728 419.014064,36.381 419.215064,60.099 C419.014064,84.018 404.341064,94.269 387.256064,94.269 C368.362064,94.269 353.287064,79.395 353.287064,60.099 Z" id="Shape"></path>
            <path d="M485.409096,116.982 L513.951096,116.982 L513.951096,55.476 C513.951096,35.979 523.800096,25.728 539.277096,25.728 C553.950096,25.728 563.196096,34.17 563.196096,55.476 L563.196096,116.982 L591.537096,116.982 L591.537096,55.476 C591.537096,11.658 571.437096,0 549.327096,0 C533.850096,0 521.187096,6.03 513.147096,16.884 L513.147096,3.216 L485.409096,3.216 L485.409096,116.982 Z" id="Path"></path>
            <path d="M677.027128,119.997 C693.509127,119.997 707.177127,113.565 715.820128,101.706 L715.820128,116.982 L742.955127,116.982 L742.955127,3.216 L715.820128,3.216 L715.820128,18.492 C706.976127,6.633 693.107128,0 677.027128,0 C645.671128,0 620.948128,25.527 620.948128,60.099 C620.948128,93.867 644.867128,119.997 677.027128,119.997 Z M649.088128,60.099 C649.088128,39.999 664.766128,25.728 683.057127,25.728 C699.539127,25.728 714.815128,36.381 715.016128,60.099 C714.815128,84.018 700.142128,94.269 683.057127,94.269 C664.163127,94.269 649.088128,79.395 649.088128,60.099 Z" id="Shape"></path>
        </g>
    </g>
</svg>