<?xml version="1.0" encoding="UTF-8"?>
<svg width="679px" height="170px" viewBox="0 0 679 170" version="1.1" xmlns="http://www.w3.org/2000/svg" xmlns:xlink="http://www.w3.org/1999/xlink">
    <g id="Artboard" stroke="none" stroke-width="1" fill="none" fill-rule="evenodd">
        <g id="MootEcuador26_Logo_white" transform="translate(7, 8)" fill-rule="nonzero">
            <g id="Group" transform="translate(285, 121)" fill="#000000">
                <polygon id="Path" points="0 0.492015968 19.6904224 0.492015968 19.6904224 4.89121756 4.66502741 4.89121756 4.66502741 12.1846307 17.9732344 12.1846307 17.9732344 16.5838323 4.66502741 16.5838323 4.66502741 24.1087824 19.890761 24.1087824 19.890761 28.507984 0 28.507984 0 0.492015968"></polygon>
                <path d="M28.8201387,14.5868263 L28.8201387,14.5 C28.8201387,6.54091816 34.4868591,0.0289421158 42.5290229,0.0289421158 C47.4230087,0.0289421158 50.3708481,1.82335329 52.9180103,4.3992016 L49.9129313,8.04590818 C47.7950661,5.96207585 45.5054821,4.57285429 42.4717833,4.57285429 C37.3774589,4.57285429 33.7141245,8.97205589 33.7141245,14.4421158 L33.7141245,14.5289421 C33.7141245,19.999002 37.4060787,24.4850299 42.4717833,24.4850299 C45.7344405,24.4850299 47.8236859,23.0958084 50.1132699,20.8383234 L53.1183489,24.0508982 C50.3422283,27.0898204 47.3085295,29 42.3286843,29 C34.5727185,29 28.8201387,22.6327345 28.8201387,14.5868263 L28.8201387,14.5868263 Z" id="Path"></path>
                <path d="M62.1335859,16.6127745 L62.1335859,0.492015968 L66.7986134,0.492015968 L66.7986134,16.4101796 C66.7986134,21.6197605 69.3457756,24.3982036 73.5242664,24.3982036 C77.7027572,24.3982036 80.1926798,21.7644711 80.1926798,16.5838323 L80.1926798,0.463073852 L84.8577072,0.463073852 L84.8577072,16.3522954 C84.8577072,24.7165669 80.3930184,28.9131737 73.438407,28.9131737 C66.4837955,28.9131737 62.1335859,24.7165669 62.1335859,16.5838323 L62.1335859,16.6127745 Z" id="Path"></path>
                <path d="M104.319171,0.289421158 L108.640761,0.289421158 L120.317639,28.507984 L115.395034,28.507984 L112.704773,21.7355289 L100.14068,21.7355289 L97.3931796,28.507984 L92.613673,28.507984 L104.290551,0.289421158 L104.319171,0.289421158 Z M110.987585,17.3942116 L106.408417,6.19361277 L101.857868,17.3942116 L111.016204,17.3942116 L110.987585,17.3942116 Z" id="Shape"></path>
                <path d="M129.447356,0.492015968 L139.349807,0.492015968 C147.706788,0.492015968 153.459368,6.54091816 153.459368,14.4131737 L153.459368,14.5 C153.459368,22.3722555 147.678168,28.507984 139.349807,28.507984 L129.447356,28.507984 L129.447356,0.492015968 Z M139.349807,24.0219561 C144.930668,24.0219561 148.565382,20.0568862 148.565382,14.5868263 L148.565382,14.5 C148.565382,9.02994012 144.930668,4.97804391 139.349807,4.97804391 L134.112383,4.97804391 L134.112383,24.0219561 L139.349807,24.0219561 Z" id="Shape"></path>
                <path d="M162.531845,14.5868263 L162.531845,14.5 C162.531845,6.62774451 168.313044,0.0289421158 176.469687,0.0289421158 C184.62633,0.0289421158 190.32167,6.54091816 190.32167,14.4421158 L190.32167,14.5289421 C190.32167,22.4011976 184.540471,29 176.383828,29 C168.227185,29 162.531845,22.488024 162.531845,14.5868263 L162.531845,14.5868263 Z M185.399065,14.5868263 L185.399065,14.5 C185.399065,9.05888224 181.649871,4.54391218 176.355208,4.54391218 C171.060545,4.54391218 167.397211,8.97205589 167.397211,14.4131737 L167.397211,14.5 C167.397211,19.9411178 171.146404,24.4560878 176.441067,24.4560878 C181.73573,24.4560878 185.399065,20.0279441 185.399065,14.5868263 L185.399065,14.5868263 Z" id="Shape"></path>
                <path d="M200.510319,0.492015968 L212.358916,0.492015968 C215.707433,0.492015968 218.311835,1.53393214 220.029023,3.2994012 C221.431393,4.83333333 222.232748,6.88822355 222.232748,9.34830339 L222.232748,9.43512974 C222.232748,14.0369261 219.628346,16.7864271 215.907772,17.9151697 L223.091342,28.507984 L217.59634,28.507984 L211.071025,18.754491 L205.232586,18.754491 L205.232586,28.507984 L200.567559,28.507984 L200.567559,0.492015968 L200.510319,0.492015968 Z M212.015479,14.3842315 C215.363995,14.3842315 217.481861,12.5319361 217.481861,9.69560878 L217.481861,9.60878244 C217.481861,6.5988024 215.421235,4.97804391 211.986859,4.97804391 L205.203966,4.97804391 L205.203966,14.3842315 L212.044099,14.3842315 L212.015479,14.3842315 Z" id="Shape"></path>
                <path d="M246.903015,24.6297405 L256.061351,16.4391218 C259.696066,13.1976048 261.041196,11.4031936 261.041196,8.88522954 C261.041196,6.13572854 259.180909,4.51497006 256.748226,4.51497006 C254.315543,4.51497006 252.655595,5.90419162 250.594969,8.71157685 L247.303692,5.99101796 C249.850855,2.22854291 252.340777,0.115768463 257.091664,0.115768463 C262.300468,0.115768463 265.849323,3.47305389 265.849323,8.48003992 L265.849323,8.56686627 C265.849323,12.9660679 263.645598,15.3682635 258.951951,19.4201597 L253.485569,24.2245509 L266.135521,24.2245509 L266.135521,28.5369261 L246.931635,28.5369261 L246.931635,24.6586826 L246.903015,24.6297405 Z" id="Path"></path>
                <path d="M275.036279,14.5868263 L275.036279,14.5 C275.036279,6.48303393 279.672686,0.0289421158 286.655917,0.0289421158 C293.639149,0.0289421158 298.189697,6.4251497 298.189697,14.4421158 L298.189697,14.5289421 C298.189697,22.5169661 293.553289,29 286.570058,29 C279.586827,29 275.036279,22.6037924 275.036279,14.5868263 L275.036279,14.5868263 Z M293.38157,14.5868263 L293.38157,14.5 C293.38157,8.97205589 290.691309,4.45708583 286.598678,4.45708583 C282.506046,4.45708583 279.873025,8.85628743 279.873025,14.4131737 L279.873025,14.5 C279.873025,20.0279441 282.534666,24.5429142 286.655917,24.5429142 C290.777169,24.5429142 293.38157,20.1147705 293.38157,14.5868263 Z" id="Shape"></path>
                <path d="M306.403579,24.6297405 L315.561916,16.4391218 C319.19663,13.1976048 320.541761,11.4031936 320.541761,8.88522954 C320.541761,6.13572854 318.681474,4.51497006 316.248791,4.51497006 C313.816108,4.51497006 312.156159,5.90419162 310.095534,8.71157685 L306.804257,5.99101796 C309.351419,2.22854291 311.841342,0.115768463 316.592228,0.115768463 C321.801032,0.115768463 325.349887,3.47305389 325.349887,8.48003992 L325.349887,8.56686627 C325.349887,12.9660679 323.146163,15.3682635 318.452515,19.4201597 L312.986134,24.2245509 L325.636085,24.2245509 L325.636085,28.5369261 L306.432199,28.5369261 L306.432199,24.6586826 L306.403579,24.6297405 Z" id="Path"></path>
                <path d="M337.77088,26.0768463 C335.767494,23.9061876 334.536843,20.9830339 334.536843,15.3393214 L334.536843,15.252495 C334.536843,6.68562874 338.400516,0 345.927523,0 C349.390519,0 351.737343,1.15768463 354.055547,3.1257485 L351.537004,6.91716567 C349.676717,5.38323353 348.074008,4.48602794 345.755805,4.48602794 C341.806272,4.48602794 339.602548,8.24850299 339.373589,13.3712575 C340.775959,11.9241517 342.607627,10.5638723 345.698565,10.5638723 C350.850129,10.5638723 355,13.7764471 355,19.3622754 L355,19.4491018 C355,25.005988 350.70703,28.9710579 345.126169,28.9710579 C341.863512,28.9710579 339.516688,27.9001996 337.713641,26.0479042 L337.77088,26.0768463 Z M350.363592,19.6516966 L350.363592,19.5648703 C350.363592,16.757485 348.245727,14.6736527 344.92583,14.6736527 C341.605934,14.6736527 339.545308,16.9021956 339.545308,19.5938124 L339.545308,19.6806387 C339.545308,22.5169661 341.720413,24.7165669 345.04031,24.7165669 C348.360206,24.7165669 350.363592,22.5169661 350.363592,19.6227545 L350.363592,19.6516966 Z" id="Shape"></path>
            </g>
            <path d="M650,50.7774548 L650,51.0074289 C650,53.0484496 648.344102,54.7157623 646.317055,54.7157623 L640.835462,54.7157623 C639.636364,54.7157623 639.293764,54.9457364 639.293764,56.0381137 L639.293764,100.710594 C639.293764,102.751615 637.637866,104.418928 635.610819,104.418928 L635.382419,104.418928 C633.355372,104.418928 631.699474,102.751615 631.699474,100.710594 L631.699474,56.1531008 C631.699474,55.2044574 631.356875,54.7157623 630.386176,54.7157623 L624.676183,54.7157623 C622.649136,54.7157623 620.993238,53.0484496 620.993238,51.0074289 L620.993238,50.7774548 C620.993238,48.7364341 622.649136,47.0691214 624.676183,47.0691214 L630.271976,47.0691214 C631.214125,47.0691214 631.699474,46.3504522 631.699474,45.1430879 L631.699474,20.7083333 C631.699474,18.6673127 633.355372,17 635.382419,17 L635.610819,17 C637.637866,17 639.293764,18.6673127 639.293764,20.7083333 L639.293764,45.5167959 C639.293764,46.4654393 639.779113,47.0691214 640.721262,47.0691214 L646.317055,47.0691214 C648.344102,47.0691214 650,48.7364341 650,50.7774548 L650,50.7774548 Z M621.963937,75.8158915 C621.963937,92.4602713 608.516905,106 591.872276,106 C575.227648,106 561.894816,92.4602713 561.894816,75.8158915 C561.894816,59.1715116 575.341848,45.6317829 591.872276,45.6317829 C608.402705,45.6317829 621.963937,59.1715116 621.963937,75.8158915 Z M614.255447,75.8158915 C614.255447,63.3685401 604.26296,52.8184755 591.900826,52.8184755 C579.538693,52.8184755 569.546206,63.3685401 569.546206,75.8158915 C569.546206,88.2632429 579.652893,98.8133075 591.900826,98.8133075 C604.14876,98.8133075 614.255447,88.2632429 614.255447,75.8158915 Z M559.953418,75.8158915 C559.953418,92.4602713 546.506386,106 529.861758,106 C513.21713,106 499.884298,92.4602713 499.884298,75.8158915 C499.884298,59.1715116 513.33133,45.6317829 529.861758,45.6317829 C546.392186,45.6317829 559.953418,59.1715116 559.953418,75.8158915 Z M552.216379,75.8158915 C552.216379,63.3685401 542.223892,52.8184755 529.861758,52.8184755 C517.499624,52.8184755 507.507137,63.3685401 507.507137,75.8158915 C507.507137,88.2632429 517.613824,98.8133075 529.861758,98.8133075 C542.109692,98.8133075 552.216379,88.2632429 552.216379,75.8158915 Z M497.85725,67.6805556 L497.85725,100.854328 C497.85725,102.895349 496.201352,104.447674 494.174305,104.447674 L493.945905,104.447674 C491.918858,104.447674 490.26296,102.895349 490.26296,100.854328 L490.26296,68.1405039 C490.26296,55.9231266 480.498873,52.8184755 476.473328,52.8184755 C467.53719,52.8184755 463.854245,58.7978036 463.854245,67.7955426 L463.854245,100.854328 C463.854245,102.895349 462.198347,104.447674 460.1713,104.447674 L459.80015,104.447674 C457.773103,104.447674 456.117205,102.895349 456.117205,100.854328 L456.117205,67.9105297 C456.003005,55.9231266 446.353118,52.8184755 442.441773,52.8184755 C433.391435,52.8184755 429.70849,58.7978036 429.70849,67.7955426 L429.70849,100.854328 C429.70849,102.895349 428.052592,104.447674 426.025545,104.447674 L425.682945,104.447674 C423.655898,104.447674 422,102.895349 422,100.854328 L422,50.7774548 C422,48.7364341 423.655898,47.0691214 425.682945,47.0691214 L426.025545,47.0691214 C427.824192,47.0691214 429.70849,48.2764858 429.70849,49.9437984 L429.70849,51.7260982 C429.70849,52.3297804 430.193839,52.4447674 430.536439,52.0998062 C434.590533,47.2990956 437.673929,45.6317829 442.441773,45.6317829 C446.724267,45.6317829 454.232908,46.7241602 458.515402,53.0484496 C459.8287,55.0894703 460.0571,55.2044574 461.256198,53.1634367 C464.111195,48.7364341 468.993238,45.6030362 476.473328,45.6030362 C483.12547,45.6030362 497.8858,48.7076873 497.8858,67.6518088 L497.85725,67.6805556 Z" id="moot" fill="#000000"></path>
            <g id="Group">
                <path d="M368.741221,80.0925629 C369.512228,83.871054 371.396912,87.1629213 374.423828,89.9681648 C377.422189,92.7447833 380.763219,94.147405 384.446919,94.147405 C386.988386,94.147405 389.786856,93.4890316 392.785217,92.1436597 C396.468917,90.5692884 398.296489,88.7372927 398.296489,86.6190476 L417.971444,86.447298 C415.20153,93.0310326 410.461265,98.1548957 403.807761,101.818887 C397.582593,105.282504 390.729198,107 383.304686,107 C373.738489,107 365.828528,104.023007 359.546249,98.0690209 C353.26397,92.1150348 350.122831,84.329053 350.122831,74.7397004 C350.122831,65.1503478 353.26397,56.934992 359.546249,51.0955056 C365.828528,45.2560193 373.966935,42.3076512 383.990026,42.3076512 C394.898347,42.3076512 403.379423,45.9430177 409.490368,53.1851257 C415.172974,59.8833601 418,68.8429642 418,80.0925629 L368.798333,80.0925629 L368.741221,80.0925629 Z M399.267386,68.5567148 C398.496379,64.5492242 396.811586,61.2573569 394.270119,58.6811129 C391.385982,55.9044944 388.044951,54.5018727 384.247028,54.5018727 C380.449105,54.5018727 377.108075,55.8472445 374.48094,58.5093633 C371.853805,61.1714821 370.111901,64.5205993 369.22667,68.5280899 L399.23883,68.5280899 L399.267386,68.5567148 Z" id="Shape" fill="#F98012"></path>
                <polygon id="Path" fill="#F98012" points="327.735073 104.996255 327.735073 0 346.410575 0 346.410575 104.996255 327.735073 104.996255"></polygon>
                <path d="M303.034294,104.996255 L303.034294,98.8132691 C301.349501,101.046014 298.522476,102.82076 294.524662,104.166132 C290.955185,105.397004 287.585599,105.998127 284.358792,105.998127 C275.477934,105.998127 268.310425,102.935259 262.941932,96.8095238 C257.544883,90.6837881 254.860637,83.0981808 254.860637,74.0813269 C254.860637,65.064473 257.487772,57.7078652 262.770597,51.6680043 C268.053423,45.6567683 275.078153,42.6511503 283.873343,42.6511503 C293.753655,42.6511503 300.150157,45.3132691 303.06285,50.6661316 L303.06285,0 L321.252903,0 L321.252903,104.996255 L303.06285,104.996255 L303.034294,104.996255 Z M303.034294,70.0452113 C303.034294,66.6960942 301.435169,63.4901017 298.265473,60.4272338 C295.095778,57.364366 291.840415,55.8186196 288.499385,55.8186196 C283.730564,55.8186196 279.932641,57.765115 277.162727,61.6581059 C274.706927,65.1217228 273.507583,69.3582129 273.507583,74.3675762 C273.507583,79.3769395 274.735483,83.44168 277.162727,86.905297 C279.932641,90.9127876 283.730564,92.9165329 288.499385,92.9165329 C291.383522,92.9165329 294.524662,91.5425361 297.922804,88.8231675 C301.320945,86.1037988 303.005738,83.2699304 303.005738,80.3788122 L303.005738,70.0165864 L303.034294,70.0452113 Z" id="Shape" fill="#F98012"></path>
                <path d="M219.651318,106.656501 C210.199344,106.656501 202.403607,103.650883 196.206995,97.6396469 C190.03894,91.6284109 186.954912,83.871054 186.954912,74.3962012 C186.954912,64.9213483 190.03894,57.1926164 196.206995,51.1527555 C202.375051,45.1415195 210.199344,42.1359016 219.651318,42.1359016 C229.103293,42.1359016 236.927586,45.1415195 243.152753,51.1527555 C249.37792,57.1639914 252.490504,64.9213483 252.490504,74.3962012 C252.490504,83.871054 249.37792,91.6284109 243.152753,97.6396469 C236.927586,103.650883 229.074737,106.656501 219.651318,106.656501 Z M219.651318,57.1926164 C215.1395,57.1926164 211.684246,58.9101124 209.257002,62.3164794 C206.829758,65.7228464 205.630414,69.7875869 205.630414,74.5107009 C205.630414,79.2338149 206.744091,83.1840556 209,86.447298 C211.598579,90.1399144 215.1395,92.000535 219.622763,92.000535 C224.106025,92.000535 227.675502,90.1685393 230.245525,86.447298 C232.615658,83.2126806 233.786446,79.2338149 233.786446,74.5107009 C233.786446,69.7875869 232.67277,65.8373462 230.41686,62.5741038 C227.818281,58.9959872 224.220249,57.1926164 219.622763,57.1926164 L219.651318,57.1926164 Z" id="Shape" fill="#F98012"></path>
                <path d="M152.116819,106.656501 C142.664845,106.656501 134.869108,103.650883 128.672496,97.6396469 C122.50444,91.6284109 119.420413,83.871054 119.420413,74.3962012 C119.420413,64.9213483 122.50444,57.1926164 128.672496,51.1527555 C134.840552,45.1415195 142.664845,42.1359016 152.116819,42.1359016 C161.568794,42.1359016 169.393086,45.1415195 175.64681,51.1527555 C181.871977,57.1639914 184.984561,64.9213483 184.984561,74.3962012 C184.984561,83.871054 181.871977,91.6284109 175.64681,97.6396469 C169.421642,103.650883 161.568794,106.656501 152.116819,106.656501 Z M152.116819,57.1926164 C147.605001,57.1926164 144.149747,58.9101124 141.722503,62.3164794 C139.295259,65.7228464 138.095915,69.7875869 138.095915,74.5107009 C138.095915,79.2338149 139.209591,83.1840556 141.465501,86.447298 C144.06408,90.1399144 147.605001,92.000535 152.116819,92.000535 C156.628638,92.000535 160.169559,90.1685393 162.739582,86.447298 C165.109714,83.2126806 166.280503,79.2338149 166.280503,74.5107009 C166.280503,69.7875869 165.166826,65.8373462 162.910917,62.5741038 C160.312338,58.9959872 156.714305,57.1926164 152.116819,57.1926164 L152.116819,57.1926164 Z" id="Shape" fill="#F98012"></path>
                <path d="M98.060664,105.196629 L98.060664,68.4135902 C98.060664,60.7134831 94.8909687,56.8777421 88.5515781,56.8777421 C82.2121875,56.8777421 79.0424921,60.7134831 79.0424921,68.4135902 L79.0424921,105.196629 L60.36699,105.196629 L60.36699,68.4135902 C60.36699,60.7134831 57.2544063,56.8777421 51.029239,56.8777421 C44.8040716,56.8777421 41.520153,60.7134831 41.520153,68.4135902 L41.520153,105.196629 L22.8446509,105.196629 L22.8446509,66.2380952 C22.8446509,58.223114 25.6145648,52.1260032 31.1829485,48.0326378 C36.0659926,44.3400214 42.6909414,42.5080257 51.029239,42.5080257 C59.3675365,42.5080257 65.7069272,44.6835206 69.7047411,49.0345104 C73.1599945,44.6835206 79.4422735,42.5080257 88.5515781,42.5080257 C96.8898757,42.5080257 103.486269,44.3400214 108.397869,48.0326378 C113.966252,52.1546281 116.736166,58.223114 116.736166,66.2380952 L116.736166,105.196629 L98.060664,105.196629 L98.060664,105.196629 Z" id="Path" fill="#F98012"></path>
                <path d="M59.1676459,39.6169074 L77.7003689,26.0486891 L77.4719224,25.2185661 C44.0330646,29.3119315 28.812816,32.2316747 0,48.9772606 L0.257002323,49.7501338 L2.54146741,49.7501338 C2.34157672,52.0973783 1.97035114,57.79374 2.42724416,66.3812199 C-0.771006968,75.6556982 2.34157672,81.9531835 5.28282552,88.8231675 C5.73971854,81.6955591 5.68260691,73.8809524 3.51236508,66.1235955 C3.05547206,57.5933654 3.42669764,51.9828785 3.62658833,49.8073836 L22.7304277,49.9791332 C22.7304277,49.9791332 22.6162044,55.7613697 23.3015439,61.200107 C40.3779205,67.211343 57.5399645,61.200107 66.649269,46.3723917 C64.1363574,43.5385233 59.1676459,39.6455324 59.1676459,39.6455324 L59.1676459,39.6169074 Z" id="Path" fill="#333333"></path>
            </g>
            <path d="M649.591185,105 L647.887538,105 L647.887538,96.4782609 L645,96.4782609 L645,95 L652.478723,95 L652.478723,96.4782609 L649.56231,96.4782609 L649.56231,105 L649.591185,105 Z M657.878419,105 L655.106383,97.2608696 L654.990881,97.2608696 L655.077508,99.057971 L655.077508,105 L653.431611,105 L653.431611,95.0289855 L656.00152,95.0289855 L658.715805,102.768116 L661.516717,95.0289855 L664,95.0289855 L664,105 L662.238602,105 L662.238602,99.173913 L662.325228,97.2898551 L662.209726,97.2898551 L659.293313,105 L657.849544,105 L657.878419,105 Z" id="Shape" fill="#000000"></path>
        </g>
    </g>
</svg>